<?xml version="1.0" encoding="UTF-8"?>
<!DOCTYPE svg PUBLIC "-//W3C//DTD SVG 1.1//EN" "http://www.w3.org/Graphics/SVG/1.1/DTD/svg11.dtd">
<!-- Creator: CorelDRAW 2019 (64-Bit) -->
<svg xmlns="http://www.w3.org/2000/svg" xml:space="preserve" width="162px" height="154px" version="1.1" style="shape-rendering:geometricPrecision; text-rendering:geometricPrecision; image-rendering:optimizeQuality; fill-rule:evenodd; clip-rule:evenodd"
viewBox="0 0 622.334 593.115"
 xmlns:xlink="http://www.w3.org/1999/xlink"
 xmlns:xodm="http://www.corel.com/coreldraw/odm/2003">
 <defs>
  <style type="text/css">
   <![CDATA[
    .fil0 {fill:#FEFEFE}
    .fil1 {fill:#EF9AA0}
   ]]>
  </style>
 </defs>
 <g id="Слой_x0020_1">
  <metadata id="CorelCorpID_0Corel-Layer"/>
  <g id="_1876819422864">
   <path class="fil0" d="M546.906 329.778c0.688,2.603 1.09,5.327 1.186,8.144 0.605,17.743 -4.54,34.448 -12.823,49.961 -5.141,9.628 -11.41,18.136 -16.769,27.464 -6.258,10.896 -17.106,17.349 -29.194,17.741 -3.167,3.907 -6.444,7.796 -9.826,11.683l31.859 71.258c6.895,15.424 2.166,33.103 -11.508,43.025 -13.676,9.919 -31.949,8.929 -44.472,-2.413 -15.879,-14.381 -33.952,-25.937 -50.441,-39.911 -2.619,2.737 -5.282,5.052 -8.313,7.093 -3.9,4.389 -8.481,7.564 -13.621,9.487 -1.93,3.723 -4.558,7.163 -7.86,10.128 -0.829,0.742 -1.646,1.489 -2.497,2.205 -0.746,0.631 -1.404,1.145 -2.198,1.714l-13.947 10.01c-6.62,4.752 -13.503,9.05 -20.23,13.636 -17.356,11.831 -35.079,24.704 -57.416,21.657 -10.24,-1.395 -19.063,-5.858 -26.884,-12.289 -18.211,-4.328 -36.459,-15.476 -50.32,-24.319 -14.373,-9.166 -36.915,-24.31 -48.325,-36.878 -2.291,-2.526 -4.162,-5.284 -5.605,-8.195 -13.405,-8.52 -25.757,-17.308 -38.514,-27.96 -7.728,-6.449 -12.138,-15.278 -12.703,-24.722 -0.653,-0.687 -1.306,-1.381 -1.963,-2.062 -0.542,-0.275 -1.09,-0.541 -1.614,-0.805 -1.98,-0.99 -3.591,-1.987 -5.361,-3.314 -5.016,-3.754 -9.2,-7.719 -12.359,-12.336 -28.279,-23.452 -51.319,-72.755 -59.297,-104.179 -0.214,-0.837 -0.371,-1.559 -0.524,-2.41l-0.871 -4.813c-14.842,-29.649 -17.252,-83.002 -11.884,-112.089 2.906,-15.761 7.173,-28.784 13.929,-41.065 -0.006,-3.712 0.576,-7.489 1.784,-11.219 18.792,-57.96 84.582,-75.045 138.666,-79.036 48.707,-3.596 79.671,10.315 113.53,34.85 7.1,-6.719 14.293,-13.027 22.95,-19.699 0.3,-0.23 0.557,-0.424 0.864,-0.647 12.71,-9.186 22.288,-13.123 33.424,-13.642 6.308,-7.746 15.711,-12.47 26.34,-12.761l23.717 -0.651 11.557 -0.703c2.269,-0.139 4.213,-0.08 6.468,0.198 10.522,1.297 19.67,3.167 28.372,5.452 2.046,-6.406 6.278,-13.192 9.63,-19.029 4.868,-8.481 10.534,-16.591 15.097,-25.197 3.088,-5.828 7.304,-10.37 12.577,-13.57 6.085,-6.89 13.414,-11.558 22.383,-15.904 12.003,-5.821 25.284,-4.663 36.1,3.147 9.273,6.695 14.475,16.646 14.668,27.685 6.37,-3.447 12.735,-5.914 18.845,-7.093 13.125,-2.53 25.684,2.039 34.113,12.413 8.431,10.375 10.334,23.603 5.17,35.932 -2.958,7.061 -6.658,14.33 -10.998,21.473 2.526,-0.146 5.009,-0.148 7.426,0.011 13.619,0.904 24.815,8.848 30.167,21.404 5.35,12.557 3.327,26.133 -5.452,36.585 -14.801,17.616 -36.492,34.137 -59.858,43.164 4.827,17.085 6.563,33.178 6.861,51.278 0.087,5.23 -0.935,10.218 -2.876,14.726 0.771,21.905 -5.202,41.914 -11.16,65.387z"/>
  </g>
  <path class="fil1" d="M259.157 514.98c10.784,-0.797 10.238,-3.771 8.872,8.87 -7.659,-0.03 -7.327,-1.393 -8.872,-8.87zm76.819 -374.459c-9.687,2.639 -7.277,3.302 -15.401,-2.636 3.081,-11.598 3.182,-10.752 14.691,-9.132l0.71 11.768zm9.23 -17.347c-16.473,-3.402 -18.701,-3.355 -30.167,4.935 -26.757,20.62 -29.492,28.04 -42.072,38.196 -39.531,-31.694 -64.647,-49.692 -113.375,-46.096 -47.289,3.49 -95.409,16.928 -107.654,54.694l22.57 -17.962c-14.48,20.604 -30.109,27.61 -37.147,65.758 -5.45,29.54 0.446,79.087 10.829,93.432l1.948 10.775c7.797,30.705 32.737,78.699 53.338,89.643 1.263,2.867 -1.074,2.546 5.254,7.286 8.561,4.287 7.533,4.217 14.421,11.214 3.937,4.003 8.913,10.473 12.049,12.384 1.8,9.385 4.431,7.582 -3.368,8.461 15.595,13.019 26.411,20.487 48.161,33.456 18.872,11.248 40.251,19.358 52.373,36.239 -16.905,-5.796 -34.594,-21.766 -52.896,-30.168 9.487,10.45 73.192,56.592 89.913,51.089 29.979,-9.864 77.708,-44.276 100.93,-46.301 5.766,-7.036 4.688,-3.061 9.721,-8.604 8.138,-8.959 -8.574,-2.842 27.141,-18.933l12.327 9.644c17.347,16.83 42.379,32.559 59.578,48.136l-41.277 -92.326c30.964,-32.928 64.518,-71.707 70.277,-133.514l1.68 5.068c0.15,0.596 0.512,1.77 0.678,2.487 0.159,0.692 0.373,1.691 0.525,2.428 0.758,3.673 -0.321,3.331 1.195,8.465 5.339,-21.224 16.439,-49.813 6.433,-79.293l-8.852 60.042c0.009,-11.499 0.655,-22.715 0.849,-34.191 0.086,-5.091 0.412,-13.467 0.1,-18.264l-4.096 -15.181c5.204,-23.966 -8.427,-44.752 -16.974,-61.505 0.876,0.483 3.25,1.031 3.657,0.874l3.571 -2.326c-3.908,-16.309 -7.712,-23.768 -18.073,-31.917 -10.354,-8.14 -11.469,-3.177 -22.508,-16.594 -23.084,-7.593 -36.681,-14.263 -64.743,-17.72l-12.148 0.74 -24.305 0.666c15.915,11.9 42.271,-1.315 73.361,15.443 -21.61,-5.371 -42.547,-4.677 -65.513,-4.294 -10.16,0.17 -12.707,-0.324 -17.711,3.634zm35.946 25.987c-13.709,-3.234 -8.962,-8.04 -3.004,-14.152 7.038,6.19 8.568,4.092 3.004,14.152zm14.149 -10.777c6.165,-7.981 -10.756,-2.089 7.649,-8.85 -3.989,11.103 5.172,3.805 -7.649,8.85zm-39.909 14.698c-0.751,-12.395 -2.817,-3.004 1.718,-10.111 11.501,0.535 9.198,-0.35 11.719,10.759l-10.197 0.542 -3.24 -1.19zm32.466 17.911c-2.633,-5.361 -1.527,-1.347 -2.192,-7l1.496 -4.373c8.123,3.584 4.483,-0.123 6.408,9.377l-5.712 1.996zm11.524 2.208l-1.065 -12.259c15.132,2.972 11.81,2.209 12.29,15.271l-11.225 -3.012zm41.179 0l2.275 -12.541c8.839,2.589 8.224,-3.081 9.647,12.297l-11.214 1.136 -0.708 -0.892zm-201.935 92.812c16.985,6.752 13.693,10.09 22.347,15.693 8.014,24.408 10.304,50.045 -5.814,66.506 -13.406,13.693 -43.947,16.105 -60.527,3.025 -31.276,-24.675 -17.508,-102.5 43.994,-85.224zm40.431 -2.385l13.731 0.788 23.177 65.196 23.926 -64.716 15.817 0.728c2.103,18.867 -8.299,36.992 -14.718,54.139 -7.398,19.761 -8.124,39.873 -28.955,40.071 -11.792,-8.324 -15.909,-28.918 -21.725,-44.34 -6.52,-17.279 -17.402,-34.309 -11.253,-51.866zm110.471 1.586c10.648,-0.209 22.626,-3.895 35.11,0.057 13.01,4.117 15.236,12.323 22.374,16.435 3.759,14.036 5.798,16.557 1.966,32.106 -15.936,6.852 -39.475,3.35 -58.831,4.46 0.683,15.813 7.926,29.24 25.985,25.696 15.083,-2.958 19.671,-20.947 30.038,-13.287 0.328,0.307 11.922,3.987 -3.254,18.722 -24.087,23.386 -84.525,12.834 -75.338,-48.548 3.231,-21.596 11.831,-23.166 21.95,-35.641zm-313.725 12.416l-2.51 11.599 -7.61 -16.592c-5.122,-36.075 -3.495,-82.422 24.884,-93.183 -8.09,20.41 -30.735,74.917 -14.764,98.176zm214.395 184.87l-0.773 -3.15c12.802,1.3 4.23,-2.389 9.889,2.515l-1.174 7.239c-14.343,-0.437 -2.278,1.126 -7.942,-6.604zm-9.655 51.21c3.513,-1.65 -4.606,-6.581 6.699,0 -2.018,2.08 7.685,9.255 -6.699,0zm-34.644 0.146c2.396,-11.192 3.803,-14.685 16.389,-13.472 0.282,10.757 -5.386,12.068 -16.389,13.472zm-7.851 -21.239c7.844,-5.022 2.608,-2.708 7.935,0 -5.507,4.39 -4.453,3.084 -7.935,0zm26.07 -3.012c1.961,-1.566 -4.838,-5.633 6.098,-3.204 9.965,2.211 2.531,-1.637 5.161,6.216 -7.175,3.523 -4.949,2.667 -11.259,-3.012zm30.839 -11.399c5.912,-0.209 -2.183,-4.82 6.028,0.853 3.722,2.572 2.136,2.137 4.701,5.535 -15.515,-3.243 -7.045,-2.554 -10.729,-6.388zm-33.798 -0.91l8.09 -1.022c-4.729,5.992 9.228,5.589 -3.036,3.796 -6.041,-0.883 -0.842,0.992 -5.054,-2.774zm24.948 0.02c-8.711,-3.493 -9.556,0.248 -4.977,-11.248 7.061,4.89 7.548,0.608 4.977,11.248zm93.122 -17.845c-1.172,-6.492 9.086,-12.127 9.28,0.005 0.141,8.804 -8.811,2.603 -9.28,-0.005zm-10.097 -24.351c7.225,2.291 3.172,-6.094 7.557,4.938 2.069,5.197 0.439,7.036 -2.99,8.504 -9.99,4.273 -9.189,-7.774 -4.567,-13.442zm-230.263 -177.533c-0.023,-28.596 22.542,-68.325 22.608,30.131 0.036,53.843 7.388,74.371 -17.495,71.709 -8.745,-15.038 -5.1,-78.759 -5.113,-101.84zm-30.327 -99.287c3.986,10.122 3.884,14.798 -7.642,13.005 -0.018,-0.03 -7.416,1.42 -2.153,-9.13 3.159,-6.326 3.384,-2.951 9.795,-3.875zm29.196 -15.87c13.567,8.838 3.21,9.628 3.003,10.047 -14.049,-4.756 -3.333,-9.474 -3.003,-10.047zm20.35 -2.626c-13.228,2.412 -4.073,3.536 -5.862,-7.808l5.862 7.808zm73.837 202.171c9.894,-11.483 14.932,-14.989 12.902,-35.82 -1.449,-14.876 -9.739,-29.126 -27.846,-23.833 -17.811,5.209 -30.773,61.339 14.944,59.653zm285.212 -171.824c28.254,0.992 58.037,-23.721 69.747,-37.659 -11.319,-0.751 -29.851,7.093 -39.188,11.874 -13.624,6.977 -27.02,14.28 -30.559,25.785zm-36.978 -120.461c-5.385,10.156 -9.474,15.445 -15.67,26.238 -1.174,2.048 -6.113,10.49 -6.597,12.131 -5.942,20.207 -0.849,11.048 4.383,13.219 5.111,-10.113 32.759,-33.424 37.04,-65.817 -17.948,8.702 -9.799,11.569 -19.156,14.229zm25.891 70.339c22.904,-6.224 44.668,-35.281 54.153,-57.928 -17.536,3.382 -49.9,36.931 -54.153,57.928zm-115.812 183.818l39.543 0.419c-1.827,-14.671 -4.833,-23.782 -18.933,-24.351 -14.782,-0.596 -19.092,9.357 -20.61,23.932zm135.373 -53.599c-0.286,-17.402 -1.847,-30.734 -6.735,-46.284 -5.191,-16.507 -8.827,-26.945 -19.543,-34.789 3.811,28.566 8.492,37.841 16.93,61.145l9.348 19.928zm-252.346 301.86c11.911,10.598 19.386,5.851 43.084,-10.303 7.31,-4.982 12.885,-8.45 19.53,-13.144l13.947 -10.011c0.498,-0.421 1.242,-1.103 1.688,-1.504l-78.249 34.962zm214.594 -154.36c9.273,-16.143 25.724,-35.001 24.918,-58.622 -6.463,6.633 -8.98,18.658 -13.269,28.176 -4.915,10.907 -14.234,19.118 -11.649,30.446z"/>
 </g>
</svg>
