<svg width="162" height="154" viewBox="0 0 162 154" fill="none" xmlns="http://www.w3.org/2000/svg">
<path fill-rule="evenodd" clip-rule="evenodd" d="M142.209 85.6264C142.387 86.3023 142.492 87.0095 142.517 87.741C142.674 92.3479 141.338 96.6852 139.187 100.713C137.852 103.213 136.225 105.422 134.833 107.844C133.208 110.673 130.392 112.349 127.253 112.45C126.431 113.465 125.58 114.475 124.702 115.484L132.974 133.986C134.764 137.991 133.536 142.581 129.986 145.157C126.435 147.732 121.691 147.475 118.439 144.531C114.316 140.797 109.623 137.796 105.342 134.168C104.662 134.878 103.971 135.48 103.184 136.009C102.171 137.149 100.982 137.973 99.6471 138.473C99.146 139.439 98.4636 140.333 97.6063 141.102C97.391 141.295 97.1789 141.489 96.9579 141.675C96.7642 141.839 96.5934 141.972 96.3872 142.12L92.7659 144.719C91.0471 145.953 89.2599 147.069 87.5133 148.26C83.0069 151.331 78.4052 154.674 72.6055 153.883C69.9467 153.52 67.6558 152.362 65.6251 150.692C60.8967 149.568 56.1587 146.674 52.5598 144.378C48.8279 141.998 42.9749 138.066 40.0124 134.802C39.4175 134.146 38.9317 133.43 38.557 132.675C35.0765 130.462 31.8693 128.181 28.557 125.415C26.5505 123.74 25.4054 121.448 25.2587 118.996C25.0892 118.817 24.9196 118.637 24.7491 118.46C24.6083 118.389 24.466 118.32 24.33 118.251C23.8159 117.994 23.3976 117.736 22.938 117.391C21.6356 116.416 20.5493 115.387 19.7291 114.188C12.3865 108.099 6.40428 95.2974 4.33282 87.1383C4.27725 86.921 4.23649 86.7335 4.19676 86.5126L3.97061 85.2629C0.116945 77.5646 -0.508802 63.7118 0.884978 56.1594C1.63951 52.0671 2.74742 48.6858 4.50159 45.4971C4.50003 44.5333 4.65115 43.5526 4.9648 42.5841C9.84407 27.535 26.9262 23.0989 40.9689 22.0627C53.6155 21.129 61.6551 24.7409 70.4465 31.1114C72.29 29.3668 74.1576 27.729 76.4054 25.9966C76.4833 25.9369 76.55 25.8865 76.6297 25.8286C79.9298 23.4435 82.4167 22.4213 85.3081 22.2865C86.946 20.2753 89.3874 19.0487 92.1472 18.9732L98.3052 18.8041L101.306 18.6216C101.895 18.5855 102.4 18.6008 102.985 18.673C105.717 19.0098 108.093 19.4953 110.352 20.0886C110.883 18.4253 111.982 16.6634 112.852 15.1478C114.116 12.9457 115.588 10.84 116.772 8.6055C117.574 7.09228 118.669 5.91297 120.038 5.0821C121.618 3.29314 123.521 2.08111 125.85 0.952691C128.966 -0.558709 132.414 -0.258039 135.223 1.7698C137.63 3.50813 138.981 6.09187 139.031 8.9581C140.685 8.0631 142.338 7.42255 143.924 7.11643C147.332 6.45953 150.593 7.64585 152.782 10.3394C154.971 13.0332 155.465 16.4678 154.124 19.669C153.356 21.5024 152.395 23.3898 151.268 25.2444C151.924 25.2065 152.569 25.206 153.197 25.2473C156.733 25.482 159.64 27.5446 161.029 30.8047C162.418 34.0651 161.893 37.5901 159.614 40.3039C155.771 44.8778 150.139 49.1674 144.072 51.5112C145.325 55.9473 145.776 60.1258 145.853 64.8254C145.876 66.1833 145.61 67.4784 145.106 68.6489C145.307 74.3365 143.756 79.5317 142.209 85.6264V85.6264Z" fill="#FEFEFE"/>
<path fill-rule="evenodd" clip-rule="evenodd" d="M67.496 133.713C70.296 133.506 70.1542 132.734 69.7995 136.016C67.8109 136.009 67.8971 135.655 67.496 133.713ZM87.4417 36.4864C84.9265 37.1716 85.5523 37.3438 83.4429 35.802C84.2429 32.7906 84.2691 33.0103 87.2574 33.4309L87.4417 36.4864V36.4864ZM89.8383 31.9823C85.5611 31.099 84.9826 31.1112 82.0055 33.2637C75.0582 38.6176 74.348 40.5442 71.0817 43.1811C60.8176 34.9519 54.2963 30.2788 41.6443 31.2125C29.3659 32.1187 16.8717 35.6078 13.6924 45.4136L19.5526 40.7498C15.7929 46.0996 11.7349 47.9186 9.9075 57.8236C8.49243 65.4936 10.0233 78.3583 12.7192 82.0829L13.225 84.8806C15.2495 92.853 21.725 105.314 27.074 108.156C27.4019 108.9 26.7951 108.817 28.4382 110.048C30.661 111.161 30.3941 111.143 32.1825 112.959C33.2048 113.999 34.4968 115.679 35.311 116.175C35.7784 118.612 36.4615 118.144 34.4365 118.372C38.4857 121.752 41.294 123.691 46.9413 127.059C51.8414 129.979 57.3924 132.085 60.5398 136.468C56.1505 134.963 51.5576 130.816 46.8055 128.635C49.2688 131.348 65.8096 143.329 70.1511 141.9C77.935 139.339 90.3277 130.404 96.3572 129.878C97.8543 128.051 97.5744 129.083 98.8812 127.644C100.994 125.318 96.655 126.906 105.928 122.728L109.129 125.232C113.633 129.602 120.132 133.686 124.598 137.731L113.881 113.758C121.92 105.209 130.633 95.14 132.128 79.092L132.564 80.4079C132.603 80.5627 132.697 80.8675 132.74 81.0536C132.781 81.2333 132.837 81.4927 132.876 81.6841C133.073 82.6377 132.793 82.5489 133.187 83.882C134.573 78.3712 137.455 70.9482 134.857 63.2939L132.559 78.8835C132.561 75.8979 132.729 72.9857 132.779 70.006C132.801 68.6841 132.886 66.5093 132.805 65.2638L131.742 61.3221C133.093 55.0994 129.553 49.7024 127.334 45.3526C127.562 45.478 128.178 45.6203 128.284 45.5795L129.211 44.9756C128.196 40.741 127.209 38.8043 124.518 36.6884C121.83 34.5749 121.541 35.8635 118.674 32.3799C112.681 30.4084 109.15 28.6765 101.864 27.7789L98.7098 27.9711L92.3991 28.144C96.5314 31.2338 103.375 27.8026 111.447 32.1537C105.836 30.7592 100.4 30.9393 94.4368 31.0388C91.7988 31.0829 91.1375 30.9547 89.8383 31.9823V31.9823ZM99.1715 38.7298C95.612 37.8901 96.8445 36.6422 98.3915 35.0553C100.219 36.6625 100.616 36.1177 99.1715 38.7298ZM102.845 35.9316C104.446 33.8593 100.052 35.3892 104.831 33.6337C103.796 36.5165 106.174 34.6217 102.845 35.9316ZM92.483 39.7478C92.288 36.5295 91.7516 38.9679 92.9291 37.1226C95.9153 37.2615 95.3173 37.0317 95.9719 39.9161L93.3243 40.0568L92.483 39.7478ZM100.913 44.3984C100.229 43.0064 100.516 44.0486 100.344 42.5808L100.732 41.4454C102.841 42.376 101.896 41.4135 102.396 43.8801L100.913 44.3984V44.3984ZM103.905 44.9717L103.628 41.7887C107.557 42.5603 106.695 42.3622 106.819 45.7537L103.905 44.9717ZM114.597 44.9717L115.188 41.7154C117.483 42.3877 117.323 40.9155 117.692 44.9083L114.781 45.2033L114.597 44.9717V44.9717ZM62.1652 69.0699C66.5753 70.8231 65.7205 71.6898 67.9675 73.1446C70.0483 79.482 70.6429 86.1386 66.4579 90.4126C62.9771 93.9679 55.0472 94.5942 50.7423 91.198C42.6216 84.7913 46.1964 64.5843 62.1652 69.0699V69.0699ZM72.6629 68.4507L76.2281 68.6553L82.2459 85.5832L88.4582 68.7799L92.5651 68.9689C93.1111 73.8677 90.4103 78.5738 88.7436 83.0259C86.8227 88.1568 86.6342 93.3788 81.2255 93.4302C78.1638 91.2689 77.0948 85.9217 75.5847 81.9175C73.8918 77.4311 71.0664 73.0093 72.6629 68.4507ZM101.346 68.8625C104.111 68.8082 107.221 67.8512 110.462 68.8773C113.84 69.9462 114.418 72.0769 116.272 73.1446C117.248 76.789 117.777 77.4435 116.782 81.4808C112.645 83.2599 106.533 82.3506 101.507 82.6388C101.684 86.7446 103.565 90.2308 108.254 89.3106C112.17 88.5426 113.361 83.8718 116.053 85.8607C116.138 85.9404 119.149 86.8959 115.208 90.7218C108.954 96.7939 93.2617 94.0541 95.6471 78.1165C96.486 72.5092 98.7189 72.1016 101.346 68.8625V68.8625ZM19.8888 72.0863L19.2371 75.0979L17.2612 70.7898C15.9313 61.4231 16.3537 49.3893 23.7222 46.5952C21.6217 51.8946 15.742 66.0471 19.8888 72.0863ZM75.5556 120.087L75.3549 119.269C78.6789 119.607 76.4532 118.649 77.9226 119.922L77.6178 121.802C73.8936 121.688 77.0263 122.094 75.5556 120.087ZM73.0488 133.384C73.9609 132.955 71.8528 131.675 74.7881 133.384C74.2642 133.924 76.7835 135.787 73.0488 133.384ZM64.0536 133.421C64.6757 130.515 65.041 129.609 68.3089 129.923C68.3821 132.716 66.9105 133.057 64.0536 133.421ZM62.0151 127.907C64.0518 126.603 62.6923 127.204 64.0754 127.907C62.6455 129.047 62.9192 128.708 62.0151 127.907ZM68.7841 127.125C69.2932 126.718 67.5279 125.662 70.3674 126.293C72.9548 126.867 71.0246 125.868 71.7074 127.907C69.8445 128.822 70.4224 128.599 68.7841 127.125ZM76.7913 124.165C78.3263 124.111 76.2245 122.914 78.3564 124.387C79.3228 125.054 78.911 124.941 79.577 125.824C75.5486 124.982 77.7478 125.161 76.7913 124.165V124.165ZM68.0158 123.929L70.1163 123.663C68.8884 125.219 72.5123 125.115 69.328 124.649C67.7595 124.42 69.1094 124.907 68.0158 123.929ZM74.4934 123.934C72.2316 123.027 72.0123 123.998 73.2012 121.013C75.0345 122.283 75.161 121.171 74.4934 123.934ZM98.6722 119.301C98.3679 117.615 101.031 116.152 101.082 119.302C101.118 121.588 98.794 119.978 98.6722 119.301ZM96.0505 112.978C97.9265 113.573 96.8741 111.396 98.0127 114.26C98.5499 115.609 98.1267 116.087 97.2364 116.468C94.6425 117.578 94.8505 114.45 96.0505 112.978ZM36.2637 66.8822C36.2577 59.4573 42.1166 49.1418 42.1337 74.7056C42.1431 88.6857 44.052 94.0157 37.5912 93.3245C35.3206 89.42 36.267 72.8751 36.2637 66.8822ZM28.3894 41.1027C29.4243 43.7308 29.3978 44.9449 26.4052 44.4794C26.4005 44.4716 24.4796 44.8481 25.8461 42.1088C26.6664 40.4663 26.7248 41.3426 28.3894 41.1027ZM35.97 36.9821C39.4926 39.2768 36.8035 39.482 36.7497 39.5908C33.1019 38.3559 35.8843 37.1309 35.97 36.9821ZM41.2538 36.3003C37.8192 36.9265 40.1963 37.2184 39.7317 34.2729L41.2538 36.3003ZM60.4253 88.7932C62.9942 85.8117 64.3023 84.9013 63.7752 79.4927C63.399 75.6302 61.2465 71.9302 56.5451 73.3045C51.9206 74.657 48.555 89.2309 60.4253 88.7932V88.7932ZM134.479 44.1797C141.816 44.4373 149.549 38.0207 152.589 34.4017C149.65 34.2067 144.838 36.2434 142.414 37.4848C138.877 39.2963 135.398 41.1925 134.479 44.1797ZM124.878 12.9025C123.48 15.5395 122.418 16.9127 120.81 19.7151C120.505 20.2469 119.222 22.4388 119.097 22.8649C117.554 28.1115 118.876 25.7334 120.235 26.2971C121.562 23.6713 128.741 17.6187 129.852 9.20801C125.192 11.4674 127.308 12.2119 124.878 12.9025ZM131.601 31.1658C137.548 29.5497 143.199 22.0052 145.661 16.125C141.108 17.0031 132.705 25.714 131.601 31.1658ZM101.531 78.8934L111.798 79.0022C111.323 75.1929 110.543 72.8273 106.882 72.6795C103.044 72.5248 101.925 75.109 101.531 78.8934ZM136.68 64.9766C136.605 60.4583 136.2 56.9967 134.931 52.9592C133.583 48.6732 132.639 45.963 129.857 43.9263C130.846 51.3434 132.062 53.7516 134.253 59.8024L136.68 64.9766V64.9766ZM71.1591 143.353C74.2517 146.105 76.1926 144.873 82.3456 140.678C84.2437 139.385 85.6912 138.484 87.4165 137.265L91.0378 134.666C91.1671 134.557 91.3603 134.38 91.4761 134.276L71.1591 143.353ZM126.878 103.274C129.285 99.083 133.557 94.1865 133.347 88.0534C131.669 89.7757 131.016 92.8979 129.902 95.3692C128.626 98.2012 126.206 100.333 126.878 103.274V103.274Z" fill="#EF9AA0"/>
</svg>
